# xmcd CD database file
# Copyright (C) 1996 Ti Kan
#
# Track frame offsets:
#  150
#  12192
#  23300
#  36095
#  57017
#  70002
#  83412
#  94440
#  106227
#  118740
#  131805
#  142377
#  152657
#  164390
#  175992
#  186692
#  196582
#  209217
#  221680
#  232957
#  246235
#  255840
#  271527
#  282067
#  296235
#  308782
#  324382
#  337082
#
# Disc length: 4631 seconds
#
# Revision: 1
# Processed by: cddbd v1.4b41PL1 Copyright (c) Steve Scherf et al.
# Submitted via: CDWizzard Release:4.12
#
DISCID=9812151c
DTITLE=Bland, Bobby "Blue" - That Did It!  The Duke Recordings (Vol. 3) (
DTITLE=Disc 1)
DYEAR=1900
DGENRE=
TTITLE0=Reach Right Out
TTITLE1=Angel Girl
TTITLE2=Building A Fire With Rain
TTITLE3=Ain't Nobody's Business
TTITLE4=River
TTITLE5=Let's Get Together
TTITLE6=Dear Bobby (The Note)
TTITLE7=Sweet Lips Of Joy
TTITLE8=I Ain't Myself Anymore
TTITLE9=Too Late For Tears
TTITLE10=These Hands (Small But Mighty)
TTITLE11=Playgirl
TTITLE12=I'm Too Far Gone (To Turn Around)
TTITLE13=Good Time Charlie, Part 1
TTITLE14=Deep In My Soul
TTITLE15=Sweet Loving
TTITLE16=One Horse Twon
TTITLE17=I Can't Stop
TTITLE18=Back In The Same Old Bag
TTITLE19=You're All I Need
TTITLE20=Poverty
TTITLE21=That Did It
TTITLE22=A Piece Of Gold
TTITLE23=Sad Feeling
TTITLE24=Shoes
TTITLE25=Driftin' Blues
TTITLE26=Gettin' Used To The Blues
TTITLE27=Road Of Brokenhearted Men
EXTD=
EXTT0=
EXTT1=
EXTT2=
EXTT3=
EXTT4=
EXTT5=
EXTT6=
EXTT7=
EXTT8=
EXTT9=
EXTT10=
EXTT11=
EXTT12=
EXTT13=
EXTT14=
EXTT15=
EXTT16=
EXTT17=
EXTT18=
EXTT19=
EXTT20=
EXTT21=
EXTT22=
EXTT23=
EXTT24=
EXTT25=
EXTT26=
EXTT27=
PLAYORDER=
